<?xml version="1.0"?>
<svg xmlns="http://www.w3.org/2000/svg" xmlns:xlink="http://www.w3.org/1999/xlink" xmlns:svgjs="http://svgjs.com/svgjs" version="1.1" width="512" height="512" x="0" y="0" viewBox="0 0 487.982 487.982" style="enable-background:new 0 0 512 512" xml:space="preserve" class=""><g><script/>
<g xmlns="http://www.w3.org/2000/svg">
	<path style="" d="M307.151,265.654c27.472,31.944,48.08,62.576,63.064,88.264   c25.824-14.008,54.728-21.84,85.84-17.768c7.696-22.632,11.936-46.872,11.936-72.12c0-61.432-24.752-117.08-64.8-157.544   C382.999,173.966,347.767,225.854,307.151,265.654z" fill="#31afb4" data-original="#00f2a9" class=""/>
	<path style="" d="M275.887,42.326c-10.424-1.48-21.064-2.296-31.896-2.296c-61.464,0-117.128,24.768-157.6,64.848   c10.792,3.944,56.888,22.088,113.512,62.624C242.039,144.606,275.087,106.27,275.887,42.326z" fill="#31afb4" data-original="#00f2a9" class=""/>
	<path style="" d="M245.823,487.982c61.52-0.496,117.12-25.768,157.32-66.352c-2.808-7.672-12.816-33.232-32.92-67.712   C301.183,391.366,254.167,472.782,245.823,487.982z" fill="#31afb4" data-original="#00f2a9" class=""/>
	<path style="" d="M199.903,167.502c-62.128,33.76-143.744,34.008-170.712,33.008c-5.952,20.144-9.2,41.448-9.2,63.52   c0,47.072,14.552,90.728,39.352,126.784c30.92-5.608,153.704-32.936,247.808-125.16c-9.552-11.104-19.896-22.36-31.16-33.624   C249.983,206.022,223.999,184.75,199.903,167.502z" fill="#31afb4" data-original="#00f2a9" class=""/>
</g>
<path xmlns="http://www.w3.org/2000/svg" style="" d="M277.023,2.406L277.023,2.406L277.023,2.406C203.151-8.106,132.207,16.246,80.759,67.198  c-27.736,27.472-48.224,61.72-59.248,99.04c-6.32,21.384-9.52,43.528-9.52,65.792c0,47.152,14.096,92.552,40.76,131.312  c43.376,63.048,114.864,100.712,191.24,100.712l1.928-0.024h0.008c61.656,0,119.504-24.936,162.896-68.744  c0.008-0.008,0.016-0.04,0.024-0.048c24.592-24.848,43.528-55.448,54.768-88.504c8.216-24.112,12.376-49.248,12.376-74.704  c0-61.496-23.832-119.44-67.112-163.176C373.479,33.086,326.647,9.494,277.023,2.406z M387.647,95.574  c-1.816,4.88-3.816,9.664-5.832,14.432c-0.864,2.056-1.648,4.16-2.544,6.192c-3,6.768-6.184,13.44-9.584,19.976  c-0.232,0.44-0.496,0.864-0.728,1.304c-3.184,6.072-6.52,12.048-10.04,17.92c-1.248,2.072-2.616,4.072-3.904,6.128  c-2.616,4.168-5.24,8.336-8.032,12.392c-1.624,2.36-3.368,4.64-5.048,6.968c-2.64,3.64-5.272,7.288-8.048,10.84  c-1.88,2.4-3.864,4.736-5.808,7.104c-2.768,3.36-5.544,6.712-8.448,9.984c-2.088,2.36-4.264,4.664-6.424,6.976  c-1.896,2.032-3.832,4.024-5.776,6.024c-2.128-2.408-4.328-4.752-6.496-7.128c-1.504-1.648-2.976-3.304-4.488-4.928  c-4.872-5.224-9.792-10.376-14.792-15.376c-5.616-5.616-11.376-11.12-17.224-16.528c-1.92-1.776-3.896-3.488-5.832-5.232  c-3.976-3.584-7.968-7.16-12.04-10.64c-2.368-2.032-4.784-4-7.184-5.992c-3.752-3.112-7.512-6.2-11.336-9.216  c-2.576-2.04-5.168-4.032-7.776-6.024c-1.944-1.488-3.84-3.032-5.8-4.496c2.416-1.52,4.744-3.088,7.032-4.688  c0.24-0.168,0.504-0.328,0.736-0.496c2.704-1.904,5.304-3.872,7.832-5.888c0.84-0.664,1.624-1.368,2.44-2.04  c1.664-1.384,3.32-2.776,4.904-4.208c0.92-0.832,1.808-1.696,2.704-2.544c1.4-1.328,2.784-2.672,4.12-4.04  c0.904-0.928,1.776-1.864,2.648-2.808c1.248-1.36,2.472-2.736,3.664-4.128c0.832-0.976,1.656-1.96,2.456-2.96  c1.16-1.44,2.272-2.912,3.368-4.392c0.728-0.992,1.472-1.976,2.176-2.976c1.12-1.608,2.176-3.248,3.224-4.904  c0.584-0.92,1.2-1.832,1.76-2.768c1.32-2.192,2.552-4.44,3.744-6.704c0.224-0.424,0.48-0.84,0.696-1.264  c1.376-2.696,2.648-5.448,3.848-8.248c0.4-0.936,0.752-1.904,1.128-2.856c0.768-1.912,1.52-3.824,2.208-5.784  c0.408-1.16,0.768-2.336,1.144-3.512c0.584-1.808,1.144-3.616,1.656-5.456c0.352-1.256,0.672-2.536,0.992-3.808  c0.456-1.824,0.888-3.664,1.28-5.52c0.272-1.304,0.544-2.616,0.784-3.936c0.352-1.92,0.664-3.864,0.952-5.824  c0.192-1.296,0.392-2.584,0.552-3.904c0.264-2.128,0.464-4.296,0.648-6.472c0.104-1.176,0.232-2.336,0.304-3.52  c0.016-0.296,0.056-0.584,0.08-0.888c41.784,7.696,79.736,27.264,110.48,56.992c-1.144,3.664-2.376,7.28-3.624,10.888  C389.487,90.23,388.631,92.934,387.647,95.574z M169.711,140.358c-2.608,0.984-5.232,1.936-7.872,2.824  c-1.432,0.48-2.872,0.952-4.312,1.408c-2.4,0.768-4.808,1.496-7.224,2.192c-1.512,0.432-3.024,0.88-4.536,1.288  c-2.424,0.656-4.848,1.264-7.264,1.856c-1.44,0.352-2.88,0.736-4.312,1.064c-3.536,0.816-7.056,1.56-10.56,2.248  c-2.072,0.408-4.112,0.752-6.168,1.12c-1.576,0.28-3.152,0.576-4.712,0.832c-2.288,0.376-4.544,0.712-6.792,1.04  c-1.216,0.176-2.432,0.352-3.632,0.52c-2.416,0.328-4.816,0.64-7.176,0.92c-0.808,0.096-1.6,0.184-2.392,0.272  c-11.768,1.328-22.752,2.072-32.352,2.448c-0.216,0.008-0.448,0.016-0.664,0.032c-2.152,0.08-4.208,0.144-6.208,0.192  c-0.736,0.016-1.472,0.032-2.184,0.048c-1.496,0.032-2.96,0.056-4.352,0.072c-2.456,0.024-4.768,0.024-6.896,0.016  c10.224-29.216,26.76-56.112,48.32-78.504c1.152,0.456,2.432,0.968,3.88,1.56c0.032,0.016,0.064,0.024,0.096,0.04  c1.256,0.512,2.632,1.096,4.096,1.72c0.192,0.08,0.392,0.168,0.584,0.248c1.456,0.624,3.008,1.304,4.648,2.032  c0.128,0.056,0.248,0.112,0.376,0.168c3.592,1.6,7.616,3.464,12.008,5.584c0.328,0.16,0.664,0.328,0.992,0.488  c1.808,0.88,3.68,1.8,5.608,2.768c0.552,0.28,1.12,0.568,1.688,0.848c1.84,0.928,3.728,1.904,5.664,2.92  c0.576,0.296,1.136,0.592,1.72,0.896c2.32,1.216,4.696,2.496,7.136,3.832c0.184,0.104,0.368,0.192,0.552,0.296  c2.696,1.48,5.472,3.032,8.312,4.656c0.432,0.248,0.888,0.512,1.328,0.768c2.304,1.328,4.648,2.696,7.04,4.112  c0.856,0.504,1.72,1.032,2.584,1.552c2.072,1.248,4.176,2.528,6.304,3.848c0.944,0.584,1.888,1.168,2.848,1.768  c2.264,1.416,4.56,2.888,6.88,4.392c0.792,0.512,1.568,1,2.368,1.528c3.016,1.976,6.072,4.016,9.176,6.128  c-3.648,1.672-7.352,3.224-11.096,4.696C172.039,139.51,170.871,139.926,169.711,140.358z M243.991,16.03  c7.752,0,15.672,0.448,23.608,1.312c-0.024,0.456-0.032,0.936-0.056,1.392c-0.08,1.336-0.208,2.648-0.32,3.968  c-0.152,1.744-0.312,3.48-0.52,5.192c-0.16,1.328-0.352,2.64-0.544,3.952c-0.248,1.656-0.512,3.304-0.808,4.936  c-0.24,1.296-0.496,2.584-0.768,3.864c-0.336,1.592-0.704,3.168-1.096,4.728c-0.32,1.264-0.648,2.528-1,3.768  c-0.432,1.536-0.904,3.048-1.384,4.552c-0.392,1.216-0.784,2.424-1.208,3.624c-0.536,1.496-1.112,2.968-1.696,4.432  c-0.456,1.152-0.912,2.304-1.4,3.44c-0.648,1.488-1.352,2.944-2.056,4.4c-0.512,1.056-1,2.128-1.544,3.168  c-0.792,1.528-1.656,3.016-2.52,4.504c-0.528,0.92-1.032,1.864-1.584,2.768c-1.064,1.744-2.216,3.432-3.368,5.12  c-0.424,0.616-0.8,1.248-1.232,1.856c-1.624,2.272-3.32,4.488-5.112,6.664c-0.448,0.544-0.936,1.056-1.392,1.584  c-1.376,1.616-2.768,3.224-4.24,4.784c-0.72,0.76-1.488,1.488-2.232,2.232c-1.28,1.296-2.56,2.584-3.912,3.84  c-0.856,0.792-1.752,1.552-2.632,2.328c-1.312,1.16-2.632,2.32-4.008,3.44c-0.96,0.784-1.96,1.544-2.944,2.304  c-1.376,1.064-2.768,2.128-4.208,3.16c-1.048,0.752-2.136,1.488-3.216,2.232c-1.456,0.992-2.936,1.976-4.448,2.936  c-1.128,0.712-2.272,1.416-3.432,2.112c-0.784,0.472-1.584,0.92-2.384,1.384c-0.584-0.416-1.144-0.768-1.728-1.176  c-4.52-3.152-8.976-6.192-13.328-9.064c-0.328-0.216-0.656-0.448-0.984-0.656c-4.608-3.024-9.08-5.848-13.472-8.568  c-1.04-0.64-2.056-1.264-3.08-1.888c-4.288-2.616-8.504-5.144-12.552-7.472c-0.096-0.056-0.184-0.104-0.28-0.16  c-4.016-2.312-7.856-4.44-11.608-6.48c-0.936-0.512-1.856-1.008-2.776-1.504c-3.648-1.96-7.2-3.816-10.552-5.52  c-0.408-0.208-0.776-0.384-1.176-0.584c-3.104-1.568-6.048-3-8.872-4.352c-0.68-0.328-1.352-0.648-2.024-0.968  c-3.016-1.424-5.864-2.736-8.504-3.92c-0.264-0.12-0.496-0.216-0.76-0.336c-2.608-1.16-5-2.192-7.208-3.112  c-0.112-0.048-0.248-0.112-0.36-0.16C140.583,35.142,190.863,16.03,243.991,16.03z M35.199,176.678  c18.096,0.392,52.6-0.272,90.144-7.512c0.544-0.104,1.072-0.2,1.616-0.304c2.728-0.536,5.472-1.136,8.224-1.752  c1.16-0.256,2.312-0.504,3.472-0.768c2.368-0.552,4.736-1.152,7.112-1.768c1.552-0.4,3.096-0.784,4.64-1.208  c2.128-0.584,4.248-1.2,6.368-1.832c1.792-0.528,3.576-1.064,5.368-1.632c1.944-0.616,3.88-1.272,5.824-1.936s3.872-1.336,5.8-2.048  c1.824-0.672,3.632-1.368,5.44-2.08c2.008-0.792,4-1.608,5.984-2.456c1.728-0.736,3.448-1.488,5.152-2.272  c2.008-0.912,3.992-1.864,5.968-2.84c0.936-0.464,1.904-0.872,2.832-1.344c3.2,2.328,6.352,4.712,9.512,7.112  c2.528,1.92,5.088,3.8,7.592,5.76c3.984,3.128,7.888,6.368,11.8,9.6c2.288,1.888,4.616,3.728,6.872,5.648  c4.208,3.584,8.312,7.28,12.416,10.976c1.872,1.68,3.792,3.312,5.64,5.016c5.896,5.44,11.696,10.992,17.352,16.656  c4.888,4.896,9.72,9.936,14.48,15.056c1.512,1.624,2.984,3.28,4.48,4.92c2.272,2.488,4.496,5.008,6.728,7.536  c-0.296,0.28-0.592,0.568-0.896,0.848c-4.712,4.416-9.488,8.664-14.304,12.76c-0.808,0.688-1.616,1.368-2.424,2.048  c-4.816,4.032-9.672,7.92-14.568,11.656c-0.8,0.616-1.608,1.216-2.416,1.816c-4.944,3.72-9.92,7.312-14.904,10.744  c-0.704,0.488-1.416,0.952-2.12,1.432c-5.112,3.472-10.24,6.832-15.368,10.008c-0.48,0.296-0.96,0.576-1.44,0.872  c-5.224,3.216-10.44,6.304-15.632,9.232c-0.2,0.112-0.408,0.232-0.608,0.352c-5.24,2.944-10.448,5.712-15.624,8.376  c-0.584,0.304-1.176,0.624-1.768,0.92c-4.936,2.512-9.832,4.888-14.672,7.16c-0.784,0.368-1.568,0.744-2.344,1.104  c-4.704,2.176-9.344,4.224-13.92,6.184c-0.864,0.368-1.728,0.744-2.592,1.104c-4.496,1.888-8.92,3.68-13.264,5.368  c-0.864,0.336-1.728,0.672-2.592,1c-4.312,1.648-8.552,3.216-12.688,4.68c-0.776,0.272-1.536,0.536-2.304,0.8  c-4.152,1.448-8.224,2.816-12.152,4.088c-0.632,0.2-1.248,0.392-1.872,0.592c-3.992,1.272-7.896,2.464-11.624,3.56  c-0.416,0.12-0.8,0.224-1.208,0.344c-3.632,1.056-7.136,2.024-10.48,2.92c-0.336,0.088-0.688,0.192-1.016,0.28  c-3.392,0.896-6.584,1.696-9.64,2.44c-0.488,0.12-1.008,0.248-1.488,0.36c-2.872,0.688-5.56,1.296-8.088,1.856  c-0.528,0.12-1.072,0.24-1.584,0.352c-2.384,0.512-4.584,0.968-6.616,1.376c-0.256,0.048-0.512,0.104-0.768,0.152  c-22.944-35.144-35.04-75.808-35.04-117.96C27.991,213.342,30.415,194.75,35.199,176.678z M73.191,364.214  c5.456-1.176,11.816-2.664,18.888-4.488c0.312-0.08,0.616-0.16,0.928-0.24c3.376-0.88,6.912-1.832,10.6-2.88  c0.384-0.112,0.768-0.224,1.16-0.336c3.784-1.08,7.688-2.232,11.752-3.488c0.144-0.048,0.296-0.096,0.44-0.144  c4.16-1.288,8.448-2.68,12.872-4.176c0.128-0.048,0.256-0.08,0.384-0.128c4.256-1.44,8.64-3,13.112-4.64  c0.592-0.216,1.168-0.424,1.76-0.648c4.352-1.616,8.8-3.336,13.328-5.152c0.672-0.272,1.344-0.544,2.024-0.816  c4.6-1.864,9.264-3.824,14-5.904c0.48-0.208,0.968-0.432,1.448-0.648c4.88-2.16,9.816-4.424,14.816-6.824  c0.112-0.056,0.216-0.104,0.328-0.152c4.936-2.376,9.928-4.904,14.952-7.528c0.704-0.368,1.408-0.728,2.12-1.104  c4.816-2.544,9.664-5.216,14.528-8c0.872-0.496,1.736-1,2.608-1.504c4.872-2.832,9.76-5.768,14.656-8.848  c0.712-0.448,1.424-0.912,2.136-1.368c5.128-3.264,10.248-6.632,15.36-10.176c0.064-0.048,0.128-0.096,0.192-0.136  c5.04-3.504,10.064-7.192,15.064-10.984c0.704-0.536,1.408-1.048,2.112-1.592c4.792-3.68,9.544-7.52,14.272-11.48  c0.896-0.752,1.792-1.504,2.68-2.264c4.68-3.992,9.312-8.112,13.896-12.384c0.288-0.264,0.584-0.504,0.864-0.768  c2.584,3.088,5.144,6.184,7.656,9.312c1.776,2.208,3.592,4.392,5.336,6.624c5.048,6.48,9.984,13.024,14.736,19.664  c0.072,0.104,0.152,0.208,0.232,0.312c4.848,6.792,9.504,13.672,14.032,20.616c1.376,2.112,2.672,4.248,4.016,6.368  c2.264,3.568,4.456,7.168,6.624,10.768c-1.08,0.648-2.12,1.376-3.192,2.04c-1.688,1.048-3.352,2.112-5.008,3.208  c-2.4,1.584-4.768,3.224-7.112,4.896c-1.584,1.128-3.16,2.256-4.712,3.424c-2.368,1.776-4.68,3.608-6.976,5.456  c-1.432,1.152-2.872,2.288-4.28,3.464c-2.424,2.04-4.776,4.12-7.12,6.224c-1.184,1.056-2.392,2.088-3.552,3.168  c-2.856,2.64-5.624,5.328-8.352,8.032c-0.568,0.568-1.168,1.12-1.736,1.68c-3.296,3.32-6.488,6.672-9.584,10.04  c-0.712,0.776-1.376,1.552-2.072,2.328c-2.32,2.568-4.616,5.136-6.808,7.704c-1.032,1.2-1.992,2.384-2.992,3.584  c-1.792,2.144-3.576,4.28-5.28,6.408c-1.04,1.296-2.024,2.56-3.024,3.84c-1.568,2-3.104,3.976-4.592,5.928  c-0.984,1.296-1.928,2.568-2.872,3.84c-1.4,1.888-2.76,3.744-4.072,5.568c-0.896,1.248-1.768,2.472-2.624,3.688  c-1.256,1.784-2.456,3.52-3.624,5.232c-0.792,1.16-1.584,2.312-2.336,3.432c-1.128,1.68-2.176,3.272-3.208,4.856  c-0.672,1.032-1.36,2.08-2,3.064c-1,1.568-1.904,3.008-2.808,4.456c-0.552,0.88-1.136,1.8-1.648,2.632  c-0.864,1.4-1.608,2.648-2.36,3.904c-1.544,2.576-2.928,4.92-4.016,6.832C175.191,447.134,113.439,416.166,73.191,364.214z   M383.135,324.398c0.912-0.424,1.824-0.824,2.736-1.232c2.256-1,4.504-1.936,6.76-2.816c0.96-0.376,1.92-0.752,2.88-1.104  c2.488-0.912,4.976-1.728,7.456-2.488c0.632-0.192,1.272-0.424,1.904-0.608c3.016-0.872,6.024-1.608,9.032-2.256  c1.032-0.224,2.072-0.384,3.104-0.584c2.024-0.384,4.04-0.728,6.064-1.008c1.232-0.168,2.472-0.32,3.704-0.448  c1.936-0.208,3.872-0.368,5.808-0.48c1.12-0.064,2.248-0.152,3.368-0.192c3-0.096,5.992-0.112,8.976,0.016  c-9.176,23.24-22.472,44.96-39.024,63.728c-0.408-0.968-0.872-2.048-1.328-3.112c-0.12-0.288-0.224-0.536-0.352-0.824  c-0.976-2.248-2.08-4.72-3.272-7.336c-0.216-0.472-0.432-0.944-0.656-1.424c-1.272-2.768-2.64-5.664-4.152-8.784  c-0.04-0.088-0.096-0.184-0.136-0.272c-1.456-2.992-3.056-6.168-4.744-9.456c-0.312-0.6-0.608-1.184-0.92-1.792  c-1.728-3.336-3.576-6.808-5.544-10.416c-0.368-0.68-0.76-1.376-1.136-2.064c-0.768-1.392-1.504-2.752-2.312-4.176  C381.959,324.998,382.543,324.67,383.135,324.398z M261.015,445.822c0.296-0.488,0.608-0.992,0.92-1.496  c1.032-1.664,2.144-3.432,3.32-5.272c0.352-0.552,0.688-1.08,1.056-1.648c1.488-2.304,3.064-4.712,4.76-7.224  c0.072-0.104,0.128-0.2,0.2-0.304c1.768-2.624,3.664-5.36,5.648-8.168c0.464-0.656,0.968-1.336,1.44-2  c1.512-2.12,3.08-4.272,4.712-6.472c0.704-0.952,1.432-1.912,2.16-2.88c1.544-2.04,3.144-4.112,4.792-6.208  c0.768-0.976,1.528-1.952,2.32-2.944c2.016-2.512,4.104-5.056,6.248-7.6c0.448-0.528,0.864-1.056,1.312-1.584  c2.568-3.024,5.248-6.056,7.992-9.08c0.816-0.904,1.68-1.8,2.512-2.696c2-2.16,4.032-4.304,6.12-6.44  c1.064-1.088,2.152-2.176,3.24-3.256c2.008-2,4.064-3.976,6.152-5.944c1.096-1.032,2.184-2.072,3.304-3.088  c2.568-2.344,5.2-4.64,7.872-6.904c0.656-0.552,1.28-1.128,1.944-1.68c3.304-2.744,6.696-5.4,10.152-7.976  c1.032-0.768,2.096-1.488,3.136-2.24c2.512-1.808,5.056-3.576,7.648-5.28c1.304-0.856,2.616-1.68,3.936-2.504  c1.112-0.696,2.256-1.328,3.376-2c0.696,1.232,1.432,2.504,2.096,3.704c0.568,1.032,1.152,2.072,1.704,3.08  c1.672,3.064,3.256,6.04,4.744,8.904c0.256,0.488,0.536,1.016,0.792,1.496c1.728,3.352,3.328,6.544,4.808,9.584  c0.336,0.688,0.632,1.32,0.952,1.984c1.12,2.312,2.176,4.544,3.144,6.64c0.352,0.768,0.704,1.52,1.04,2.264  c0.92,2.024,1.784,3.944,2.568,5.744c0.208,0.472,0.432,0.976,0.632,1.432c0.96,2.216,1.824,4.264,2.56,6.064  c0.048,0.12,0.088,0.216,0.136,0.336c0.528,1.296,0.952,2.376,1.368,3.432c-36.528,35.216-83.416,56.112-133.736,59.792  C260.391,446.862,260.671,446.382,261.015,445.822z M450.447,295.518c-0.888-0.072-1.776-0.064-2.664-0.12  c-1.416-0.088-2.824-0.144-4.24-0.184c-2.048-0.056-4.096-0.064-6.152-0.024c-1.552,0.024-3.104,0.048-4.656,0.128  c-2.032,0.104-4.072,0.296-6.104,0.488c-1.496,0.144-2.984,0.248-4.48,0.44c-2.888,0.376-5.768,0.864-8.656,1.416  c-1.28,0.248-2.56,0.52-3.84,0.808c-2.776,0.616-5.56,1.28-8.336,2.064c-1.296,0.368-2.592,0.808-3.88,1.208  c-2.264,0.704-4.528,1.432-6.792,2.248c-1.392,0.504-2.776,1.048-4.168,1.592c-2.176,0.856-4.352,1.752-6.52,2.712  c-1.416,0.624-2.832,1.264-4.248,1.936c-0.816,0.384-1.632,0.712-2.448,1.112c-2.192-3.64-4.536-7.224-6.808-10.832  c-1.544-2.448-3.04-4.92-4.624-7.352c-4.368-6.696-8.88-13.336-13.536-19.888c-0.32-0.456-0.616-0.92-0.936-1.368  c-4.992-6.976-10.168-13.856-15.48-20.656c-1.744-2.24-3.576-4.416-5.352-6.632c-2.824-3.512-5.584-7.064-8.488-10.52  c2.392-2.432,4.624-4.984,6.944-7.464c2-2.144,4.048-4.264,5.992-6.448c3.496-3.92,6.832-7.952,10.144-11.992  c1.504-1.832,3.08-3.616,4.544-5.472c4.672-5.92,9.168-11.96,13.464-18.128c0.696-1.008,1.32-2.056,2.008-3.072  c3.552-5.208,7-10.48,10.28-15.864c1.408-2.312,2.704-4.696,4.056-7.04c2.416-4.176,4.824-8.352,7.08-12.624  c1.432-2.704,2.76-5.464,4.128-8.208c2.008-4.032,3.984-8.08,5.848-12.192c1.32-2.92,2.576-5.872,3.832-8.824  c1.72-4.072,3.384-8.168,4.976-12.312c1.168-3.048,2.296-6.112,3.392-9.2c0.632-1.784,1.352-3.52,1.96-5.312  c34.464,39.384,53.304,89.336,53.304,142.088C459.991,253.598,456.783,274.926,450.447,295.518z" fill="#1a535c" data-original="#322153" class=""/>
<g xmlns="http://www.w3.org/2000/svg">
</g>
<g xmlns="http://www.w3.org/2000/svg">
</g>
<g xmlns="http://www.w3.org/2000/svg">
</g>
<g xmlns="http://www.w3.org/2000/svg">
</g>
<g xmlns="http://www.w3.org/2000/svg">
</g>
<g xmlns="http://www.w3.org/2000/svg">
</g>
<g xmlns="http://www.w3.org/2000/svg">
</g>
<g xmlns="http://www.w3.org/2000/svg">
</g>
<g xmlns="http://www.w3.org/2000/svg">
</g>
<g xmlns="http://www.w3.org/2000/svg">
</g>
<g xmlns="http://www.w3.org/2000/svg">
</g>
<g xmlns="http://www.w3.org/2000/svg">
</g>
<g xmlns="http://www.w3.org/2000/svg">
</g>
<g xmlns="http://www.w3.org/2000/svg">
</g>
<g xmlns="http://www.w3.org/2000/svg">
</g>
</g></svg>
