<?xml version="1.0"?>
<svg xmlns="http://www.w3.org/2000/svg" xmlns:xlink="http://www.w3.org/1999/xlink" xmlns:svgjs="http://svgjs.com/svgjs" version="1.1" width="512" height="512" x="0" y="0" viewBox="0 0 464.001 464.001" style="enable-background:new 0 0 512 512" xml:space="preserve" class=""><g><script/>
<g xmlns="http://www.w3.org/2000/svg">
	<polygon style="" points="360.004,168.001 168.004,168.001 171.204,200.001 356.804,200.001  " fill="#31afb4" data-original="#00f2a9" class=""/>
	<circle style="" cx="296.004" cy="264.001" r="32" fill="#31afb4" data-original="#00f2a9" class=""/>
	<circle style="" cx="280.004" cy="376.001" r="16" fill="#31afb4" data-original="#00f2a9" class=""/>
</g>
<g xmlns="http://www.w3.org/2000/svg">
	<path style="" d="M335.964,456.801l28.8-288l3.2-32c0.224-2.248-0.512-4.496-2.032-6.168   c-1.512-1.68-3.672-2.632-5.928-2.632h-144.64l-7.392-88.664c-0.264-3.184-2.408-5.912-5.44-6.92l-96-32   c-4.232-1.408-8.72,0.864-10.12,5.056s0.864,8.728,5.056,10.12l91.008,30.328l6.84,82.08h-31.312c-2.256,0-4.416,0.952-5.928,2.632   c-1.512,1.672-2.256,3.912-2.032,6.168l3.2,32l28.8,288c0.408,4.08,3.848,7.2,7.96,7.2h128   C332.116,464.001,335.556,460.881,335.964,456.801z M351.164,144.001l-1.6,16H218.028l-1.336-16H351.164z M200.644,144.001   l1.336,16h-23.528l-1.6-16H200.644z M207.244,448.001l-27.2-272h23.272l20.72,248.664c0.344,4.176,3.84,7.336,7.96,7.336   c0.216,0,0.448-0.008,0.672-0.032c4.408-0.368,7.672-4.224,7.304-8.632l-20.608-247.336h128.6l-27.2,272H207.244z" fill="#1a535c" data-original="#322153" class=""/>
	<path style="" d="M296.004,192.001c-22.056,0-40,17.944-40,40s17.944,40,40,40s40-17.944,40-40   S318.06,192.001,296.004,192.001z M296.004,256.001c-13.232,0-24-10.768-24-24s10.768-24,24-24s24,10.768,24,24   S309.236,256.001,296.004,256.001z" fill="#1a535c" data-original="#322153" class=""/>
	<path style="" d="M280.004,320.001c-13.232,0-24,10.768-24,24s10.768,24,24,24s24-10.768,24-24   S293.236,320.001,280.004,320.001z M280.004,352.001c-4.416,0-8-3.584-8-8s3.584-8,8-8s8,3.584,8,8S284.42,352.001,280.004,352.001   z" fill="#1a535c" data-original="#322153" class=""/>
</g>
<g xmlns="http://www.w3.org/2000/svg">
</g>
<g xmlns="http://www.w3.org/2000/svg">
</g>
<g xmlns="http://www.w3.org/2000/svg">
</g>
<g xmlns="http://www.w3.org/2000/svg">
</g>
<g xmlns="http://www.w3.org/2000/svg">
</g>
<g xmlns="http://www.w3.org/2000/svg">
</g>
<g xmlns="http://www.w3.org/2000/svg">
</g>
<g xmlns="http://www.w3.org/2000/svg">
</g>
<g xmlns="http://www.w3.org/2000/svg">
</g>
<g xmlns="http://www.w3.org/2000/svg">
</g>
<g xmlns="http://www.w3.org/2000/svg">
</g>
<g xmlns="http://www.w3.org/2000/svg">
</g>
<g xmlns="http://www.w3.org/2000/svg">
</g>
<g xmlns="http://www.w3.org/2000/svg">
</g>
<g xmlns="http://www.w3.org/2000/svg">
</g>
</g></svg>
