<?xml version="1.0"?>
<svg xmlns="http://www.w3.org/2000/svg" xmlns:xlink="http://www.w3.org/1999/xlink" xmlns:svgjs="http://svgjs.com/svgjs" version="1.1" width="512" height="512" x="0" y="0" viewBox="0 0 488 488" style="enable-background:new 0 0 512 512" xml:space="preserve" class=""><g><script/>
<path xmlns="http://www.w3.org/2000/svg" style="" d="M276,264l-16-128h-32l-16,128l-32,128l-64,96h64c0-35.344,28.656-64,64-64s64,28.656,64,64h64l-64-96  L276,264z" fill="#31afb4" data-original="#00f2a9" class=""/>
<path xmlns="http://www.w3.org/2000/svg" style="" d="M108.944,459.776c1.392,2.6,4.104,4.224,7.056,4.224h64c4.424,0,8-3.576,8-8  c0-30.872,25.128-56,56-56s56,25.128,56,56c0,4.424,3.576,8,8,8h64c2.952,0,5.664-1.624,7.056-4.224s1.232-5.76-0.4-8.208  L322.944,368H340c4.424,0,8-3.576,8-8s-3.576-8-8-8h-25.76l-28-112H308c4.424,0,8-3.576,8-8s-3.576-8-8-8h-24.944l-14-112H276  c4.424,0,8-3.576,8-8s-3.576-8-8-8h-8V72c0-1.24-0.288-2.472-0.84-3.576L252,38.112V8c0-4.424-3.576-8-8-8s-8,3.576-8,8v30.112  l-15.16,30.312C220.288,69.528,220,70.76,220,72v24h-8c-4.424,0-8,3.576-8,8c0,4.424,3.576,8,8,8h6.936l-14,112H180  c-4.424,0-8,3.576-8,8c0,4.424,3.576,8,8,8h21.76l-28,112H148c-4.424,0-8,3.576-8,8s3.576,8,8,8h17.056l-55.712,83.56  C107.712,454.016,107.552,457.168,108.944,459.776z M236,73.888l8-16l8,16V96h-16V73.888z M235.064,112h17.872l14,112h-45.88  L235.064,112z M218.24,240h51.512l28,112H190.24L218.24,240z M184.28,368h119.44l53.336,80h-41.504C311.56,412.048,281,384,244,384  s-67.56,28.048-71.552,64h-41.504L184.28,368z" fill="#1a535c" data-original="#322153" class=""/>
<g xmlns="http://www.w3.org/2000/svg">
</g>
<g xmlns="http://www.w3.org/2000/svg">
</g>
<g xmlns="http://www.w3.org/2000/svg">
</g>
<g xmlns="http://www.w3.org/2000/svg">
</g>
<g xmlns="http://www.w3.org/2000/svg">
</g>
<g xmlns="http://www.w3.org/2000/svg">
</g>
<g xmlns="http://www.w3.org/2000/svg">
</g>
<g xmlns="http://www.w3.org/2000/svg">
</g>
<g xmlns="http://www.w3.org/2000/svg">
</g>
<g xmlns="http://www.w3.org/2000/svg">
</g>
<g xmlns="http://www.w3.org/2000/svg">
</g>
<g xmlns="http://www.w3.org/2000/svg">
</g>
<g xmlns="http://www.w3.org/2000/svg">
</g>
<g xmlns="http://www.w3.org/2000/svg">
</g>
<g xmlns="http://www.w3.org/2000/svg">
</g>
</g></svg>
