<?xml version="1.0"?>
<svg xmlns="http://www.w3.org/2000/svg" xmlns:xlink="http://www.w3.org/1999/xlink" xmlns:svgjs="http://svgjs.com/svgjs" version="1.1" width="512" height="512" x="0" y="0" viewBox="0 0 464 464" style="enable-background:new 0 0 512 512" xml:space="preserve" class=""><g><script/>
<g xmlns="http://www.w3.org/2000/svg">
	<path style="" d="M392,280.002c-35.344,0-64,28.656-64,64h128C456,308.658,427.344,280.002,392,280.002z" fill="#31afb4" data-original="#00f2a9" class=""/>
	<path style="" d="M200,200.002c0-8.84-7.16-16-16-16H88c-8.84,0-16,7.16-16,16v16h128V200.002z" fill="#31afb4" data-original="#00f2a9" class=""/>
</g>
<path xmlns="http://www.w3.org/2000/svg" style="" d="M392,240.002c-8.664,0-16.944,1.616-24.648,4.44l-21.168-84.656  c12.2-1.128,21.816-11.296,21.816-23.784c0-13.232-10.768-24-24-24h-14.112l-62.312-31.16c-3.96-1.968-8.752-0.376-10.736,3.576  c-1.976,3.952-0.376,8.76,3.576,10.736l60.712,30.352l31.112,124.432c0.152,0.608,0.456,1.12,0.72,1.648  c-8.544,5.536-15.832,12.824-21.368,21.368c-1.088-0.56-2.28-0.952-3.592-0.952h-90.232L208,182.714v-14.712  c0-13.232-10.768-24-24-24H88c-13.232,0-24,10.768-24,24v8.472c-35.944,3.992-64,34.528-64,71.528v64c0,4.424,3.576,8,8,8h8v8  c0,30.872,25.128,56,56,56s56-25.128,56-56v-8h200h8v8c0,30.872,25.128,56,56,56s56-25.128,56-56v-8h8c4.424,0,8-3.576,8-8  C464,272.298,431.704,240.002,392,240.002z M352,136.002c0,4.416-3.584,8-8,8c-0.592,0-1.12,0.216-1.672,0.336l-4.088-16.336H344  C348.416,128.002,352,131.586,352,136.002z M80,168.002c0-4.416,3.584-8,8-8h96c4.416,0,8,3.584,8,8v8H80V168.002z M16,248.002  c0-30.872,25.128-56,56-56h122.232l30.176,90.528c1.088,3.272,4.144,5.472,7.592,5.472h92.2c-1.816,5.104-3.112,10.44-3.728,16H120  H24h-8V248.002z M112,328.002c0,22.056-17.944,40-40,40s-40-17.944-40-40v-8h80V328.002z M432,328.002c0,22.056-17.944,40-40,40  s-40-17.944-40-40v-8h80V328.002z M440,304.002h-96h-7.432c3.888-27.104,27.264-48,55.432-48s51.536,20.896,55.432,48H440z" fill="#1a535c" data-original="#322153" class=""/>
<g xmlns="http://www.w3.org/2000/svg">
</g>
<g xmlns="http://www.w3.org/2000/svg">
</g>
<g xmlns="http://www.w3.org/2000/svg">
</g>
<g xmlns="http://www.w3.org/2000/svg">
</g>
<g xmlns="http://www.w3.org/2000/svg">
</g>
<g xmlns="http://www.w3.org/2000/svg">
</g>
<g xmlns="http://www.w3.org/2000/svg">
</g>
<g xmlns="http://www.w3.org/2000/svg">
</g>
<g xmlns="http://www.w3.org/2000/svg">
</g>
<g xmlns="http://www.w3.org/2000/svg">
</g>
<g xmlns="http://www.w3.org/2000/svg">
</g>
<g xmlns="http://www.w3.org/2000/svg">
</g>
<g xmlns="http://www.w3.org/2000/svg">
</g>
<g xmlns="http://www.w3.org/2000/svg">
</g>
<g xmlns="http://www.w3.org/2000/svg">
</g>
</g></svg>
