<?xml version="1.0"?>
<svg xmlns="http://www.w3.org/2000/svg" xmlns:xlink="http://www.w3.org/1999/xlink" xmlns:svgjs="http://svgjs.com/svgjs" version="1.1" width="512" height="512" x="0" y="0" viewBox="0 0 464 464" style="enable-background:new 0 0 512 512" xml:space="preserve" class=""><g><script/>
<path xmlns="http://www.w3.org/2000/svg" style="" d="M200,192c-64,0-76.688,0-76.688,0l44.952,32.52c22.832,15.208,50.248,24.072,79.736,24.072  c29.824,0,57.528-9.064,80.512-24.592l44.32-32c0,0-12.504-32-60.584-32C264,160,264,192,200,192z" fill="#31afb4" data-original="#00f2a9" class=""/>
<path xmlns="http://www.w3.org/2000/svg" style="" d="M40,80c8.216,0,16.016-2.504,22.632-7.072L91.08,96H40c-3.424,0-6.472,2.176-7.568,5.424  c-1.112,3.24-0.024,6.832,2.696,8.92l179.504,138.088c5.864,4.504,9.368,11.616,9.368,19.024V448h-56c-4.424,0-8,3.576-8,8  s3.576,8,8,8h64h32h64c4.424,0,8-3.576,8-8s-3.576-8-8-8h-56V267.456c0-7.408,3.496-14.512,9.368-19.024l179.504-138.088  c2.72-2.096,3.808-5.68,2.696-8.92C462.472,98.176,459.424,96,456,96H116.472L73.744,61.344C77.768,55.008,80,47.688,80,40  c0-10.688-4.168-20.736-11.72-28.28C60.736,4.168,50.688,0,40,0S19.264,4.168,11.72,11.72C4.168,19.264,0,29.312,0,40  s4.168,20.736,11.72,28.28C19.264,75.832,29.312,80,40,80z M110.808,112l49.32,40H123.32c-1.968,0-3.76,0.776-5.184,2.008L63.52,112  H110.808z M324.04,185.368c-22.496,15.192-48.792,23.224-76.04,23.224c-4.944,0-9.848-0.352-14.712-0.88  c1.856-0.312,3.648-1.096,4.928-2.672c2.792-3.432,2.256-8.472-1.168-11.248l-32.016-25.968  c32.864-0.904,49.424-10.216,63.944-18.584c12.328-7.096,22.984-13.24,43.272-13.24c30.44,0,44.552,13.856,50.104,21.704  L324.04,185.368z M226.96,206.208c0.552,0.448,1.184,0.728,1.8,1.008c-19.952-2.824-39.016-10.024-55.936-21.264L148.016,168h31.832  L226.96,206.208z M271.616,235.744C261.832,243.264,256,255.12,256,267.456V448h-16V267.456c0-12.336-5.832-24.184-15.616-31.712  l-24.92-19.176c15.528,5.232,31.864,8.024,48.544,8.024s33.008-2.784,48.552-8.032L271.616,235.744z M432.48,112l-53.944,41.496  c-5.128-9.32-22.608-33.496-66.288-33.496c-24.56,0-38.144,7.824-51.264,15.376C246.792,143.544,232.12,152,200,152h-14.488  l-49.32-40H432.48z M23.032,23.032C27.56,18.504,33.584,16,40,16s12.44,2.504,16.968,7.032S64,33.584,64,40  s-2.504,12.44-7.032,16.968c-9.064,9.064-24.872,9.064-33.936,0C18.496,52.44,16,46.416,16,40S18.496,27.56,23.032,23.032z" fill="#1a535c" data-original="#322153" class=""/>
<g xmlns="http://www.w3.org/2000/svg">
</g>
<g xmlns="http://www.w3.org/2000/svg">
</g>
<g xmlns="http://www.w3.org/2000/svg">
</g>
<g xmlns="http://www.w3.org/2000/svg">
</g>
<g xmlns="http://www.w3.org/2000/svg">
</g>
<g xmlns="http://www.w3.org/2000/svg">
</g>
<g xmlns="http://www.w3.org/2000/svg">
</g>
<g xmlns="http://www.w3.org/2000/svg">
</g>
<g xmlns="http://www.w3.org/2000/svg">
</g>
<g xmlns="http://www.w3.org/2000/svg">
</g>
<g xmlns="http://www.w3.org/2000/svg">
</g>
<g xmlns="http://www.w3.org/2000/svg">
</g>
<g xmlns="http://www.w3.org/2000/svg">
</g>
<g xmlns="http://www.w3.org/2000/svg">
</g>
<g xmlns="http://www.w3.org/2000/svg">
</g>
</g></svg>
