<?xml version="1.0"?>
<svg xmlns="http://www.w3.org/2000/svg" xmlns:xlink="http://www.w3.org/1999/xlink" xmlns:svgjs="http://svgjs.com/svgjs" version="1.1" width="512" height="512" x="0" y="0" viewBox="0 0 464.01 464.01" style="enable-background:new 0 0 512 512" xml:space="preserve" class=""><g><script/>
<g xmlns="http://www.w3.org/2000/svg">
	<polygon style="" points="456.005,104.01 296.005,72.01 168.005,104.01 104.005,40.01 8.005,136.01 456.005,136.01     " fill="#31afb4" data-original="#00f2a9" class=""/>
	<rect x="72.005" y="168.01" style="" width="32" height="256" fill="#31afb4" data-original="#00f2a9" class=""/>
	<rect x="360.005" y="168.01" style="" width="32" height="256" fill="#31afb4" data-original="#00f2a9" class=""/>
</g>
<path xmlns="http://www.w3.org/2000/svg" style="" d="M8.005,464.01h448c4.424,0,8-3.576,8-8v-32c0-4.424-3.576-8-8-8h-24v-24c0-4.424-3.576-8-8-8h-24  v-240h56c4.424,0,8-3.576,8-8v-32v-32c0-3.816-2.696-7.096-6.432-7.84l-160-32c-1.16-0.232-2.368-0.216-3.504,0.08L170.461,63.146  l-60.8-60.8c-3.128-3.128-8.184-3.128-11.312,0l-95.992,96c-0.016,0.016-0.032,0.04-0.048,0.056  c-0.656,0.664-1.136,1.432-1.512,2.248c-0.112,0.24-0.176,0.496-0.272,0.752c-0.24,0.688-0.384,1.392-0.432,2.128  c0,0.168-0.088,0.312-0.088,0.48v32c0,4.424,3.576,8,8,8h56v240h-24c-4.424,0-8,3.576-8,8v24h-24c-4.424,0-8,3.576-8,8v32  C0.005,460.434,3.581,464.01,8.005,464.01z M384.005,384.01h-16v-240h16V384.01z M304.005,384.01v-240h48v240H304.005z   M208.005,384.01v-240h48v240H208.005z M112.005,384.01v-240h48v240H112.005z M176.005,144.01h16v240h-16V144.01z M272.005,144.01  h16v240h-16V144.01z M104.005,19.322l58.344,58.344c1.984,1.984,4.888,2.8,7.592,2.104l126.256-31.56l151.808,30.352V96.01H27.317  L104.005,19.322z M16.005,112.01h432v16h-56h-32h-64h-32h-64h-32h-64h-32h-56V112.01z M80.005,144.01h16v240h-16V144.01z   M48.005,400.01h24h32h64h32h64h32h64h32h24v16h-368V400.01z M16.005,432.01h24h384h24v16h-432V432.01z" fill="#1a535c" data-original="#322153" class=""/>
<g xmlns="http://www.w3.org/2000/svg">
</g>
<g xmlns="http://www.w3.org/2000/svg">
</g>
<g xmlns="http://www.w3.org/2000/svg">
</g>
<g xmlns="http://www.w3.org/2000/svg">
</g>
<g xmlns="http://www.w3.org/2000/svg">
</g>
<g xmlns="http://www.w3.org/2000/svg">
</g>
<g xmlns="http://www.w3.org/2000/svg">
</g>
<g xmlns="http://www.w3.org/2000/svg">
</g>
<g xmlns="http://www.w3.org/2000/svg">
</g>
<g xmlns="http://www.w3.org/2000/svg">
</g>
<g xmlns="http://www.w3.org/2000/svg">
</g>
<g xmlns="http://www.w3.org/2000/svg">
</g>
<g xmlns="http://www.w3.org/2000/svg">
</g>
<g xmlns="http://www.w3.org/2000/svg">
</g>
<g xmlns="http://www.w3.org/2000/svg">
</g>
</g></svg>
