<?xml version="1.0"?>
<svg xmlns="http://www.w3.org/2000/svg" xmlns:xlink="http://www.w3.org/1999/xlink" xmlns:svgjs="http://svgjs.com/svgjs" version="1.1" width="512" height="512" x="0" y="0" viewBox="0 0 488 488" style="enable-background:new 0 0 512 512" xml:space="preserve" class=""><g><script/>
<path xmlns="http://www.w3.org/2000/svg" style="" d="M101.123,488h257.616c8.488,0,16.624-3.368,22.624-9.376L467.995,392h-448l54.504,81.752  C80.427,482.656,90.419,488,101.123,488z" fill="#31afb4" data-original="#00f2a9" class=""/>
<g xmlns="http://www.w3.org/2000/svg">
	<path style="" d="M441.643,397.664c0.008-0.008,0.016-0.016,0.024-0.016l31.992-31.992   c2.288-2.288,2.976-5.728,1.736-8.72c-1.24-2.992-4.168-4.936-7.4-4.936h-248v-80h16v56c0,4.424,3.576,8,8,8h64   c47.776,0,72-56.52,72-168c0-133.4-134.576-135.992-135.936-136c-1.968,0-4.176,0.824-5.696,2.32s-2.368,3.544-2.368,5.68v24h-16V8   c0-4.424-3.576-8-8-8s-8,3.576-8,8v88h-16V72c0-3.712-2.552-6.928-6.168-7.792c-3.592-0.832-7.336,0.88-8.992,4.208l-128,256   c-1.24,2.48-1.112,5.424,0.352,7.784s4.032,3.8,6.808,3.8h128c4.424,0,8-3.576,8-8v-24h16v48h-184   c-2.952,0-5.664,1.624-7.056,4.224s-1.232,5.76,0.4,8.208l54.496,81.752c7.44,11.16,19.88,17.816,33.288,17.816h257.616   c10.688,0,20.736-4.168,28.288-11.72L441.643,397.664z M251.995,48.496c27.136,2.584,112,18.728,112,119.504   c0,98.016-19.888,152-56,152h-56V48.496z M235.995,80v176h-16V80H235.995z M171.995,320H64.939l107.056-214.112V320z M187.995,288   V112h16v176H187.995z M358.739,448H101.123c-8.04,0-15.504-3.992-19.968-10.688L34.939,368h413.744l-16,16h-60.688   c-4.424,0-8,3.576-8,8s3.576,8,8,8h44.688l-40.968,40.968C371.179,445.504,365.155,448,358.739,448z" fill="#1a535c" data-original="#322153" class=""/>
	<path style="" d="M147.995,384h-64c-4.424,0-8,3.576-8,8s3.576,8,8,8h64c4.424,0,8-3.576,8-8S152.419,384,147.995,384   z" fill="#1a535c" data-original="#322153" class=""/>
	<path style="" d="M243.995,384h-64c-4.424,0-8,3.576-8,8s3.576,8,8,8h64c4.424,0,8-3.576,8-8S248.419,384,243.995,384   z" fill="#1a535c" data-original="#322153" class=""/>
	<path style="" d="M339.995,384h-64c-4.424,0-8,3.576-8,8s3.576,8,8,8h64c4.424,0,8-3.576,8-8S344.419,384,339.995,384   z" fill="#1a535c" data-original="#322153" class=""/>
</g>
<g xmlns="http://www.w3.org/2000/svg">
</g>
<g xmlns="http://www.w3.org/2000/svg">
</g>
<g xmlns="http://www.w3.org/2000/svg">
</g>
<g xmlns="http://www.w3.org/2000/svg">
</g>
<g xmlns="http://www.w3.org/2000/svg">
</g>
<g xmlns="http://www.w3.org/2000/svg">
</g>
<g xmlns="http://www.w3.org/2000/svg">
</g>
<g xmlns="http://www.w3.org/2000/svg">
</g>
<g xmlns="http://www.w3.org/2000/svg">
</g>
<g xmlns="http://www.w3.org/2000/svg">
</g>
<g xmlns="http://www.w3.org/2000/svg">
</g>
<g xmlns="http://www.w3.org/2000/svg">
</g>
<g xmlns="http://www.w3.org/2000/svg">
</g>
<g xmlns="http://www.w3.org/2000/svg">
</g>
<g xmlns="http://www.w3.org/2000/svg">
</g>
</g></svg>
